<svg width="119" height="29" viewBox="0 0 119 29" fill="none" xmlns="http://www.w3.org/2000/svg">
<path d="M0 0H15.6684V5.16216H4.93894V13.0406H14.2378V17.955H4.93894V28.0996H0V0Z" fill="#1B283F"/>
<path d="M26.3125 0.0703125H31.0811V27.7663H26.3125V0.0703125Z" fill="#1B283F"/>
<path d="M41.3368 28.2697C39.5202 28.2697 37.9761 27.9187 36.7044 27.2167C35.4555 26.5146 34.5018 25.5434 33.8433 24.3031C33.1847 23.0628 32.8555 21.6353 32.8555 20.0206C32.8555 18.4761 33.2415 17.0837 34.0136 15.8434C34.7856 14.6031 35.8188 13.6202 37.1132 12.8948C38.4075 12.1459 39.8495 11.7715 41.439 11.7715C43.5735 11.7715 45.322 12.415 46.6845 13.7021C48.0697 14.9658 48.9666 16.8029 49.3754 19.2132L37.7944 23.0043L36.7385 20.3365L45.1177 17.423L44.1299 17.8793C43.9482 17.2709 43.619 16.7444 43.1421 16.2997C42.6879 15.8317 41.9953 15.5977 41.0643 15.5977C40.3604 15.5977 39.7359 15.7732 39.1909 16.1242C38.6687 16.4518 38.2599 16.9316 37.9647 17.5634C37.6922 18.1719 37.556 18.8973 37.556 19.7398C37.556 20.6993 37.7263 21.5066 38.0669 22.1619C38.4075 22.7937 38.873 23.2735 39.4634 23.6011C40.0538 23.9287 40.7124 24.0925 41.439 24.0925C41.9613 24.0925 42.4609 23.9989 42.9377 23.8117C43.4373 23.6245 43.9255 23.3788 44.4024 23.0745L46.5142 26.7252C45.7194 27.1932 44.8565 27.5677 43.9255 27.8485C43.0172 28.1293 42.1543 28.2697 41.3368 28.2697Z" fill="#1B283F"/>
<path d="M51.1484 27.6914V0.802734H51.1825L65.1137 21.1623L63.0019 20.6708L76.8991 0.802734H76.9672V27.6914H72.0282V12.2813L72.3348 14.914L63.8534 27.3403H63.7853L55.0655 14.914L55.9171 12.4919V27.6914H51.1484Z" fill="#1B283F"/>
<path d="M91.9391 12.5086L92.3138 15.2466L92.2457 15.0009C92.7679 14.0415 93.5059 13.2692 94.4597 12.6842C95.4134 12.0757 96.5829 11.7715 97.968 11.7715C99.3759 11.7715 100.545 12.2044 101.476 13.0703C102.43 13.9127 102.918 15.0126 102.941 16.3699V27.8485H98.1724V18.1953C98.1497 17.5166 97.968 16.9784 97.6274 16.5805C97.3095 16.1593 96.7645 15.9487 95.9924 15.9487C95.2658 15.9487 94.63 16.1944 94.085 16.6859C93.54 17.1773 93.1199 17.8442 92.8247 18.6867C92.5295 19.5292 92.3819 20.5003 92.3819 21.6002V27.8485H87.6133V12.5086H91.9391Z" fill="#1B283F"/>
<path d="M107.031 5.92188H111.8V12.5914H115.41V16.4176H111.8V28.0014H107.031V16.4176H104.715V12.5914H107.031V5.92188Z" fill="#1B283F"/>
<path d="M18.8594 12.5039H21.2642V27.8613H18.8594V12.5039Z" fill="#1B283F"/>
<path d="M21.7734 12.5039H24.1062V27.8613H21.7734V12.5039Z" fill="#1B283F"/>
<path fill-rule="evenodd" clip-rule="evenodd" d="M20.9761 7.21446C20.3236 6.4573 19.5081 6.14036 18.8706 6.01068C18.6055 5.9563 18.3372 5.92674 18.0681 5.92229C17.9663 5.92071 17.8646 5.92362 17.7631 5.93101L17.7445 5.93276H17.7395L17.7375 5.93334H17.7365L17.5459 5.95427L17.5133 6.17293L17.5128 6.17584L17.5118 6.18282L17.5078 6.20899L17.4963 6.30378C17.4421 6.79214 17.428 7.28535 17.4541 7.7768C17.5033 8.6555 17.7089 9.77379 18.379 10.5507C19.0341 11.3102 19.8326 11.6062 20.4555 11.7144C20.7252 11.7613 20.998 11.7798 21.2706 11.7696V11.2869L19.338 9.04512L19.6931 8.6334L21.2711 10.4641V7.63374C21.1848 7.48254 21.0865 7.34239 20.9761 7.21446ZM21.7726 8.43277V10.5612L22.6193 9.77611L22.9322 10.2297L21.7726 11.3055V11.7638C21.956 11.7663 22.1394 11.7543 22.3213 11.7277C22.7773 11.6597 23.3696 11.4707 23.81 10.9601C24.2544 10.4443 24.4254 9.66562 24.4931 9.0649C24.533 8.70282 24.5461 8.33744 24.5322 7.97278L24.5312 7.95417V7.94835L24.5307 7.94719L24.5157 7.71283L24.3161 7.67968H24.3141L24.3095 7.67852L24.2945 7.6762L24.2388 7.66863C23.9585 7.63574 23.6763 7.6303 23.3952 7.65235C22.9052 7.69422 22.2591 7.84484 21.8428 8.34787L21.8228 8.37113L21.7726 8.43277Z" fill="black"/>
<path d="M80.1602 12.5039H82.565V27.8613H80.1602V12.5039Z" fill="#1B283F"/>
<path d="M83.0703 12.5039H85.4031V27.8613H83.0703V12.5039Z" fill="#1B283F"/>
<path fill-rule="evenodd" clip-rule="evenodd" d="M82.2769 7.21446C81.6244 6.4573 80.8088 6.14036 80.1713 6.01068C79.9063 5.9563 79.6379 5.92674 79.3688 5.92229C79.2671 5.92071 79.1654 5.92362 79.0639 5.93101L79.0453 5.93276H79.0403L79.0383 5.93334H79.0373L78.8467 5.95427L78.8141 6.17293L78.8136 6.17584L78.8126 6.18282L78.8086 6.20899L78.797 6.30378C78.7429 6.79214 78.7288 7.28535 78.7549 7.7768C78.8041 8.6555 79.0097 9.77378 79.6798 10.5507C80.3349 11.3102 81.1333 11.6062 81.7563 11.7144C82.026 11.7613 82.2988 11.7798 82.5713 11.7696V11.2869L80.6388 9.04512L80.9939 8.6334L82.5718 10.4641V7.63374C82.4856 7.48254 82.3873 7.34239 82.2769 7.21446ZM83.0734 8.43277V10.5612L83.92 9.77611L84.233 10.2297L83.0734 11.3055V11.7638C83.2568 11.7663 83.4401 11.7543 83.6221 11.7277C84.078 11.6597 84.6704 11.4707 85.1108 10.9601C85.5551 10.4443 85.7262 9.66562 85.7939 9.06489C85.8338 8.70282 85.8469 8.33744 85.833 7.97278L85.832 7.95417V7.94835L85.8315 7.94719L85.8165 7.71283L85.6168 7.67968H85.6148L85.6103 7.67852L85.5953 7.67619L85.5396 7.66863C85.2593 7.63574 84.9771 7.6303 84.696 7.65235C84.2059 7.69422 83.5599 7.84484 83.1436 8.34786L83.1236 8.37113L83.0734 8.43277Z" fill="black"/>
</svg>
